<?xml version="1.0" encoding="UTF-8" standalone="no"?>
<!-- Created with Inkscape (http://www.inkscape.org/) -->

<svg
   xmlns:dc="http://purl.org/dc/elements/1.1/"
   xmlns:cc="http://creativecommons.org/ns#"
   xmlns:rdf="http://www.w3.org/1999/02/22-rdf-syntax-ns#"
   xmlns:svg="http://www.w3.org/2000/svg"
   xmlns="http://www.w3.org/2000/svg"
   xmlns:sodipodi="http://sodipodi.sourceforge.net/DTD/sodipodi-0.dtd"
   xmlns:inkscape="http://www.inkscape.org/namespaces/inkscape"
   width="640"
   height="640"
   id="svg2"
   version="1.1"
   inkscape:version="0.48.4 r9939"
   sodipodi:docname="ingest.svg">
  <defs
     id="defs4" />
  <sodipodi:namedview
     id="base"
     pagecolor="#ffffff"
     bordercolor="#666666"
     borderopacity="1.0"
     inkscape:pageopacity="0.0"
     inkscape:pageshadow="2"
     inkscape:zoom="0.49497475"
     inkscape:cx="117.62237"
     inkscape:cy="414.57261"
     inkscape:document-units="px"
     inkscape:current-layer="layer1"
     showgrid="false"
     inkscape:window-width="1366"
     inkscape:window-height="696"
     inkscape:window-x="0"
     inkscape:window-y="24"
     inkscape:window-maximized="1"
     showguides="true"
     inkscape:guide-bbox="true" />
  <metadata
     id="metadata7">
    <rdf:RDF>
      <cc:Work
         rdf:about="">
        <dc:format>image/svg+xml</dc:format>
        <dc:type
           rdf:resource="http://purl.org/dc/dcmitype/StillImage" />
        <dc:title />
      </cc:Work>
    </rdf:RDF>
  </metadata>
  <g
     inkscape:label="Layer 1"
     inkscape:groupmode="layer"
     id="layer1"
     transform="translate(0,-412.36218)">
    <rect
       style="fill:#000000;fill-opacity:1;stroke-width:4.80000019;stroke-linejoin:bevel;stroke-miterlimit:4;stroke-dasharray:none"
       id="rect2985"
       width="117.70525"
       height="148.93321"
       x="69.799301"
       y="575.33643" />
    <path
       sodipodi:type="arc"
       style="fill:#ffffff;fill-opacity:1;stroke-width:4.80000019;stroke-linejoin:bevel;stroke-miterlimit:4;stroke-dasharray:none"
       id="path2987"
       sodipodi:cx="109.28571"
       sodipodi:cy="189.28572"
       sodipodi:rx="19.285715"
       sodipodi:ry="19.285715"
       d="m 128.57143,189.28572 a 19.285715,19.285715 0 1 1 -38.571432,0 19.285715,19.285715 0 1 1 38.571432,0 z"
       transform="matrix(2.6156723,0,0,2.6156723,-157.20369,144.60465)" />
    <path
       style="fill:#666666;stroke:none"
       d="m 146.4522,708.7523 -36.72555,-46.1851 49.5556,29.67876 z"
       id="path2989"
       inkscape:connector-curvature="0" />
    <path
       sodipodi:type="arc"
       style="fill:#000000;fill-opacity:1;stroke:none"
       id="path3759"
       sodipodi:cx="302.54068"
       sodipodi:cy="105.73848"
       sodipodi:rx="20.708128"
       sodipodi:ry="20.708128"
       d="m 323.24881,105.73848 a 20.708128,20.708128 0 1 1 -41.41626,0 20.708128,20.708128 0 1 1 41.41626,0 z"
       transform="matrix(1.2641782,0,0,1.2641782,-115.41849,391.129)" />
    <path
       transform="matrix(1.2641782,0,0,1.2641782,-60.940355,390.30401)"
       sodipodi:type="arc"
       style="fill:#000000;fill-opacity:1;stroke:none"
       id="path3759-0"
       sodipodi:cx="302.54068"
       sodipodi:cy="105.73848"
       sodipodi:rx="20.708128"
       sodipodi:ry="20.708128"
       d="m 323.24881,105.73848 a 20.708128,20.708128 0 1 1 -41.41626,0 20.708128,20.708128 0 1 1 41.41626,0 z" />
    <rect
       style="fill:#000000;fill-opacity:1;stroke:none"
       id="rect3779"
       width="134.41928"
       height="78.13121"
       x="234.87866"
       y="552.39014" />
    <path
       style="fill:#000000;fill-opacity:1;stroke:none"
       d="m 375.17877,561.57809 47.04674,-30.19096 0,118.38732 -47.04674,-30.10164 z"
       id="rect3781"
       inkscape:connector-curvature="0"
       sodipodi:nodetypes="ccccc" />
    <path
       sodipodi:type="arc"
       style="fill:none;stroke:#000000;stroke-width:5;stroke-miterlimit:4;stroke-opacity:1;stroke-dasharray:none"
       id="path3824"
       sodipodi:cx="237.89093"
       sodipodi:cy="205.74359"
       sodipodi:rx="48.992397"
       sodipodi:ry="48.992397"
       d="m 286.88333,205.74359 a 48.992397,48.992397 0 1 1 -97.9848,0 48.992397,48.992397 0 1 1 97.9848,0 z"
       transform="matrix(1.5100552,0,0,1.5100552,170.33915,362.81387)" />
    <path
       transform="matrix(1.5100552,0,0,1.5100552,170.33915,362.81387)"
       d="m 269.71073,205.74359 a 31.819803,48.992397 0 1 1 -63.6396,0 31.819803,48.992397 0 1 1 63.6396,0 z"
       sodipodi:ry="48.992397"
       sodipodi:rx="31.819803"
       sodipodi:cy="205.74359"
       sodipodi:cx="237.89093"
       id="path3826"
       style="fill:none;stroke:#000000;stroke-width:5;stroke-miterlimit:4;stroke-opacity:1;stroke-dasharray:none"
       sodipodi:type="arc" />
    <path
       sodipodi:type="arc"
       style="fill:none;stroke:#000000;stroke-width:5;stroke-miterlimit:4;stroke-opacity:1;stroke-dasharray:none"
       id="path3828"
       sodipodi:cx="237.89093"
       sodipodi:cy="205.74359"
       sodipodi:rx="13.637057"
       sodipodi:ry="48.992397"
       d="m 251.52799,205.74359 a 13.637057,48.992397 0 1 1 -27.27412,0 13.637057,48.992397 0 1 1 27.27412,0 z"
       transform="matrix(1.5100552,0,0,1.5100552,170.33915,362.81387)" />
    <path
       inkscape:connector-curvature="0"
       id="path3836"
       d="m 457.87443,672.73535 144.14899,0"
       style="fill:none;stroke:#000000;stroke-width:7.55027628;stroke-linecap:butt;stroke-linejoin:miter;stroke-miterlimit:4;stroke-opacity:1;stroke-dasharray:none" />
    <path
       style="fill:none;stroke:#000000;stroke-width:7.55027628;stroke-linecap:butt;stroke-linejoin:miter;stroke-miterlimit:4;stroke-opacity:1;stroke-dasharray:none"
       d="m 466.93476,633.07531 125.29712,0"
       id="path3834"
       inkscape:connector-curvature="0"
       sodipodi:nodetypes="cc" />
    <path
       sodipodi:nodetypes="cc"
       inkscape:connector-curvature="0"
       id="path3838"
       d="m 466.93476,711.59818 125.29712,0"
       style="fill:none;stroke:#000000;stroke-width:7.55027628;stroke-linecap:butt;stroke-linejoin:miter;stroke-miterlimit:4;stroke-opacity:1;stroke-dasharray:none" />
    <text
       xml:space="preserve"
       style="font-size:40px;font-style:normal;font-variant:normal;font-weight:normal;font-stretch:normal;line-height:125%;letter-spacing:0px;word-spacing:0px;fill:#000000;fill-opacity:1;stroke:none;font-family:FreeSans;-inkscape-font-specification:FreeSans"
       x="232.76427"
       y="900.74072"
       id="text3840"
       sodipodi:linespacing="125%"><tspan
         sodipodi:role="line"
         id="tspan3842"
         x="232.76427"
         y="900.74072">InterLace</tspan></text>
    <g
       id="g3851"
       transform="matrix(0,1,-1,0,1032.1243,399.73275)">
      <path
         inkscape:connector-curvature="0"
         id="path3844"
         d="m 291.42857,722.64789 101.42857,0 -19.28571,19.28572"
         style="fill:none;stroke:#000000;stroke-width:5;stroke-linecap:butt;stroke-linejoin:miter;stroke-miterlimit:4;stroke-opacity:1;stroke-dasharray:none" />
      <path
         style="fill:none;stroke:#000000;stroke-width:5;stroke-linecap:butt;stroke-linejoin:miter;stroke-miterlimit:4;stroke-opacity:1;stroke-dasharray:none"
         d="m 291.42857,716.74071 101.42857,0 -19.28571,-19.28572"
         id="path3846"
         inkscape:connector-curvature="0" />
    </g>
    <rect
       style="fill:none;stroke:#000000;stroke-width:5;stroke-linejoin:bevel;stroke-miterlimit:4;stroke-opacity:1;stroke-dasharray:none"
       id="rect3849"
       width="187.88837"
       height="89.90358"
       x="222.82527"
       y="845.10608" />
  </g>
</svg>
